# xmcd CD database file
#
# Track frame offsets:
#	150
#	13312
#	24778
#	42633
#	60845
#	73322
#	87295
#	99664
#	113843
#	131361
#	147402
#	168445
#
# Disc length: 2401 seconds
#
# Revision: 1
# Processed by: cddbd v1.5.2PL0 Copyright (c) Steve Scherf et al.
# Submitted via: CDex 1.97
#
DISCID=a2095f0c
DTITLE=Marty Hall - Tried and True
DYEAR=1997
DGENRE=Blues
TTITLE0=My Babe
TTITLE1=Ecoman
TTITLE2=Easy Rhythm
TTITLE3=Stranger In My Hometown
TTITLE4=Honest I Do
TTITLE5=The Hardest Time
TTITLE6=I'll Provide The Thrills
TTITLE7=Moondance In Tajikistan
TTITLE8=No Respect
TTITLE9=Trouble In Mind
TTITLE10=Rock Me
TTITLE11=You Gotta Go
EXTD=YEAR: 1997
EXTT0=
EXTT1=
EXTT2=
EXTT3=
EXTT4=
EXTT5=
EXTT6=
EXTT7=
EXTT8=
EXTT9=
EXTT10=
EXTT11=
PLAYORDER=
